<svg width="120" height="13" viewBox="0 0 120 13" fill="none" xmlns="http://www.w3.org/2000/svg">
<path d="M1.84593 6.58636C1.84593 3.89836 3.86193 1.85036 6.42193 1.85036C8.98193 1.85036 10.9979 3.89836 10.9979 6.58636C10.9979 9.27436 8.98193 11.3384 6.42193 11.3384C3.86193 11.3384 1.84593 9.27436 1.84593 6.58636ZM0.59793 6.58636C0.59793 9.83436 3.18993 12.5064 6.42193 12.5064C9.66993 12.5064 12.2939 9.83436 12.2939 6.58636C12.2939 3.33836 9.66993 0.682357 6.42193 0.682357C3.18993 0.682357 0.59793 3.33836 0.59793 6.58636ZM6.45393 4.36236C7.52593 4.36236 7.98993 5.08236 8.13393 5.69036L9.25393 5.22636C8.99793 4.28236 8.13393 3.22636 6.45393 3.22636C4.66193 3.22636 3.30193 4.60236 3.30193 6.55436C3.30193 8.45836 4.64593 9.89836 6.46993 9.89836C8.10193 9.89836 8.99793 8.84236 9.30193 7.94636L8.21393 7.46636C8.06993 7.96236 7.63793 8.76236 6.46993 8.76236C5.44593 8.76236 4.54993 7.99436 4.54993 6.55436C4.54993 5.09836 5.46193 4.36236 6.45393 4.36236ZM20.0266 10.8744V2.31436H22.3786C24.4746 2.31436 26.2026 3.75436 26.2026 6.61836C26.2026 9.46636 24.4426 10.8744 22.3466 10.8744H20.0266ZM22.3946 12.2664C25.2746 12.2664 27.8186 10.3304 27.8186 6.61836C27.8186 2.89036 25.3066 0.922357 22.4266 0.922357H18.4586V12.2664H22.3946ZM29.3342 10.2024C29.3342 11.4184 30.3422 12.5064 31.9102 12.5064C33.2862 12.5064 34.0542 11.7704 34.3902 11.2264C34.3902 11.7864 34.4382 12.0744 34.4702 12.2664H35.9422C35.9102 12.0744 35.8462 11.6744 35.8462 11.0024V7.14636C35.8462 5.64236 34.9502 4.33036 32.6462 4.33036C30.9822 4.33036 29.6542 5.35436 29.4942 6.82636L30.9342 7.16236C31.0302 6.26636 31.6222 5.61036 32.6782 5.61036C33.8462 5.61036 34.3422 6.23436 34.3422 6.98636C34.3422 7.25836 34.2142 7.49836 33.7502 7.56236L31.6702 7.86636C30.3422 8.05836 29.3342 8.82636 29.3342 10.2024ZM32.1182 11.2424C31.3502 11.2424 30.8702 10.6984 30.8702 10.1224C30.8702 9.43436 31.3502 9.06636 31.9902 8.97036L34.3422 8.61836V8.97036C34.3422 10.6504 33.3502 11.2424 32.1182 11.2424ZM43.2612 12.5064C45.8692 12.5064 47.6612 10.9864 48.2692 8.85836L46.8772 8.34636C46.4132 9.89836 45.1972 11.0664 43.2612 11.0664C41.1972 11.0664 39.2292 9.54636 39.2292 6.58636C39.2292 3.62636 41.1972 2.12236 43.2612 2.12236C45.1172 2.12236 46.3652 3.08236 46.7972 4.79436L48.2532 4.28236C47.6772 2.09036 45.8532 0.682357 43.2612 0.682357C40.4452 0.682357 37.6292 2.79436 37.6292 6.58636C37.6292 10.3784 40.3332 12.5064 43.2612 12.5064ZM53.1727 11.1624C51.8927 11.1624 50.7727 10.2024 50.7727 8.41036C50.7727 6.63436 51.8927 5.67436 53.1727 5.67436C54.4527 5.67436 55.5727 6.63436 55.5727 8.41036C55.5727 10.2024 54.4527 11.1624 53.1727 11.1624ZM53.1727 4.33036C50.8687 4.33036 49.2367 6.07436 49.2367 8.41036C49.2367 10.7624 50.8687 12.5064 53.1727 12.5064C55.4767 12.5064 57.1087 10.7624 57.1087 8.41036C57.1087 6.07436 55.4767 4.33036 53.1727 4.33036ZM59.9289 8.39436C59.9289 6.81036 60.8249 5.69036 62.2009 5.69036C63.5769 5.69036 64.4089 6.77836 64.4089 8.36236C64.4089 9.94636 63.5609 11.1464 62.1849 11.1464C60.7449 11.1464 59.9289 9.97836 59.9289 8.39436ZM64.4249 11.2264C64.4249 11.6904 64.4729 12.0904 64.5049 12.2664H65.9609C65.9449 12.1384 65.8809 11.5784 65.8809 10.8424V0.682357H64.3929V5.65836C64.1369 5.03436 63.4009 4.36236 62.0409 4.36236C59.8649 4.36236 58.3929 6.21836 58.3929 8.39436C58.3929 10.6824 59.7849 12.4744 62.0409 12.4744C63.2409 12.4744 64.0569 11.8344 64.4249 11.0984V11.2264ZM69.4152 7.62636C69.4792 6.63436 70.2472 5.65836 71.5112 5.65836C72.8712 5.65836 73.5912 6.52236 73.6232 7.62636H69.4152ZM73.8472 9.62636C73.5592 10.4904 72.9352 11.1784 71.6872 11.1784C70.3912 11.1784 69.3992 10.2184 69.3672 8.84236H75.1592C75.1752 8.74636 75.1912 8.55436 75.1912 8.36236C75.1912 5.96236 73.8632 4.33036 71.4952 4.33036C69.5592 4.33036 67.8152 5.97836 67.8152 8.39436C67.8152 11.0024 69.6232 12.5064 71.6872 12.5064C73.4792 12.5064 74.7112 11.4344 75.1432 10.0744L73.8472 9.62636ZM76.7167 11.2424C76.7167 11.8664 77.1967 12.3464 77.8207 12.3464C78.4447 12.3464 78.9407 11.8664 78.9407 11.2424C78.9407 10.6184 78.4447 10.1224 77.8207 10.1224C77.1967 10.1224 76.7167 10.6184 76.7167 11.2424ZM86.3214 5.62636C86.3054 5.46636 86.2894 5.30636 86.2894 5.16236C86.2894 3.97836 86.9294 3.03436 88.2894 3.03436C89.6014 3.03436 90.2414 3.91436 90.2414 4.85836C90.2414 5.65836 89.7934 6.39436 88.8174 7.01836L87.0894 8.13836C85.3294 9.27436 84.6574 10.5704 84.6254 12.2664H91.8894V10.8104H86.5614C86.7054 10.1704 87.2334 9.73836 87.8254 9.35436L89.8734 8.04236C91.0574 7.29036 91.8254 6.20236 91.8254 4.84236C91.8254 3.11436 90.5454 1.65836 88.3214 1.65836C86.0494 1.65836 84.7374 3.24236 84.7374 5.01836C84.7374 5.14636 84.7374 5.29036 84.7534 5.43436L86.3214 5.62636ZM94.8862 7.08236C94.8862 5.49836 95.1742 4.37836 95.7982 3.72236C96.1982 3.30636 96.7102 3.05036 97.4462 3.05036C98.1822 3.05036 98.6942 3.30636 99.0942 3.72236C99.7182 4.37836 100.006 5.49836 100.006 7.08236C100.006 8.66636 99.7182 9.78636 99.0942 10.4424C98.6942 10.8584 98.1822 11.1144 97.4462 11.1144C96.7102 11.1144 96.1982 10.8584 95.7982 10.4424C95.1742 9.78636 94.8862 8.66636 94.8862 7.08236ZM93.3342 7.08236C93.3342 8.50636 93.5742 9.81836 94.2622 10.8424C94.9342 11.8504 95.9742 12.5064 97.4462 12.5064C98.9182 12.5064 99.9582 11.8504 100.63 10.8424C101.318 9.81836 101.558 8.50636 101.558 7.08236C101.558 5.65836 101.318 4.34636 100.63 3.32236C99.9582 2.31436 98.9182 1.65836 97.4462 1.65836C95.9742 1.65836 94.9342 2.31436 94.2622 3.32236C93.5742 4.34636 93.3342 5.65836 93.3342 7.08236ZM104.618 5.62636C104.602 5.46636 104.586 5.30636 104.586 5.16236C104.586 3.97836 105.226 3.03436 106.586 3.03436C107.898 3.03436 108.538 3.91436 108.538 4.85836C108.538 5.65836 108.09 6.39436 107.114 7.01836L105.386 8.13836C103.626 9.27436 102.954 10.5704 102.922 12.2664H110.186V10.8104H104.858C105.002 10.1704 105.53 9.73836 106.122 9.35436L108.17 8.04236C109.354 7.29036 110.122 6.20236 110.122 4.84236C110.122 3.11436 108.842 1.65836 106.618 1.65836C104.346 1.65836 103.034 3.24236 103.034 5.01836C103.034 5.14636 103.034 5.29036 103.05 5.43436L104.618 5.62636ZM113.183 7.08236C113.183 5.49836 113.471 4.37836 114.095 3.72236C114.495 3.30636 115.007 3.05036 115.743 3.05036C116.479 3.05036 116.991 3.30636 117.391 3.72236C118.015 4.37836 118.303 5.49836 118.303 7.08236C118.303 8.66636 118.015 9.78636 117.391 10.4424C116.991 10.8584 116.479 11.1144 115.743 11.1144C115.007 11.1144 114.495 10.8584 114.095 10.4424C113.471 9.78636 113.183 8.66636 113.183 7.08236ZM111.631 7.08236C111.631 8.50636 111.871 9.81836 112.559 10.8424C113.231 11.8504 114.271 12.5064 115.743 12.5064C117.215 12.5064 118.255 11.8504 118.927 10.8424C119.615 9.81836 119.855 8.50636 119.855 7.08236C119.855 5.65836 119.615 4.34636 118.927 3.32236C118.255 2.31436 117.215 1.65836 115.743 1.65836C114.271 1.65836 113.231 2.31436 112.559 3.32236C111.871 4.34636 111.631 5.65836 111.631 7.08236Z" fill="#292525"/>
</svg>
