<svg width="208" height="43" viewBox="0 0 208 43" fill="none" xmlns="http://www.w3.org/2000/svg">
<path fill-rule="evenodd" clip-rule="evenodd" d="M21.4815 30.4309L30.5827 35.9207C31.2517 36.3254 32.079 35.7271 31.903 34.9705L29.4913 24.6244L37.5186 17.6742C38.0996 17.1639 37.8003 16.1961 37.0081 16.1258L26.4282 15.2284L22.2913 5.48051C21.992 4.7591 20.971 4.7591 20.6717 5.48051L16.5348 15.2284L5.95492 16.1258C5.18035 16.1961 4.86348 17.1639 5.46201 17.6742L13.4894 24.6244L11.0776 34.9705C10.9016 35.7271 11.729 36.3254 12.3979 35.9207L21.4815 30.4309Z" fill="#FBBE36"/>
<path fill-rule="evenodd" clip-rule="evenodd" d="M104 30.4309L113.101 35.9207C113.77 36.3254 114.598 35.7271 114.422 34.9705L112.01 24.6244L120.037 17.6742C120.618 17.1639 120.319 16.1961 119.527 16.1258L108.947 15.2284L104.81 5.48051C104.511 4.7591 103.49 4.7591 103.19 5.48051L99.0534 15.2284L88.4735 16.1258C87.6989 16.1961 87.382 17.1639 87.9806 17.6742L96.0079 24.6244L93.5962 34.9705C93.4202 35.7271 94.2475 36.3254 94.9165 35.9207L104 30.4309Z" fill="#FBBE36"/>
<path fill-rule="evenodd" clip-rule="evenodd" d="M62.741 30.4309L71.8422 35.9207C72.5112 36.3254 73.3386 35.7271 73.1625 34.9705L70.7508 24.6244L78.7782 17.6742C79.3591 17.1639 79.0598 16.1961 78.2676 16.1258L67.6877 15.2284L63.5508 5.48051C63.2516 4.7591 62.2305 4.7591 61.9313 5.48051L57.7944 15.2284L47.2144 16.1258C46.4399 16.1961 46.123 17.1639 46.7215 17.6742L54.7489 24.6244L52.3372 34.9705C52.1611 35.7271 52.9885 36.3254 53.6575 35.9207L62.741 30.4309Z" fill="#FBBE36"/>
<path fill-rule="evenodd" clip-rule="evenodd" d="M145.259 30.4309L154.361 35.9207C155.029 36.3254 155.857 35.7271 155.681 34.9705L153.269 24.6244L161.296 17.6742C161.877 17.1639 161.578 16.1961 160.786 16.1258L150.206 15.2284L146.069 5.48051C145.77 4.7591 144.749 4.7591 144.45 5.48051L140.313 15.2284L129.733 16.1258C128.958 16.1961 128.641 17.1639 129.24 17.6742L137.267 24.6244L134.855 34.9705C134.679 35.7271 135.507 36.3254 136.176 35.9207L145.259 30.4309Z" fill="#FBBE36"/>
<path fill-rule="evenodd" clip-rule="evenodd" d="M186.518 30.4309L195.62 35.9207C196.289 36.3254 197.116 35.7271 196.94 34.9705L194.528 24.6244L202.556 17.6742C203.136 17.1639 202.837 16.1961 202.045 16.1258L191.465 15.2284L187.328 5.48051C187.029 4.7591 186.008 4.7591 185.709 5.48051L181.572 15.2284L170.992 16.1258C170.217 16.1961 169.9 17.1639 170.499 17.6742L178.526 24.6244L176.115 34.9705C175.938 35.7271 176.766 36.3254 177.435 35.9207L186.518 30.4309Z" fill="#FBBE36"/>
</svg>
